<svg xmlns="http://www.w3.org/2000/svg" width="44" height="44" viewBox="0 0 44 44"><g transform="translate(-278 -2675)"><path d="M300-2789a20.268,20.268,0,0,1,2.059.1q1.024.105,2.039.3c.672.14,1.34.3,2,.5s1.3.44,1.937.7,1.258.56,1.863.88a20.275,20.275,0,0,1,1.77,1.06,19.851,19.851,0,0,1,1.652,1.23,18.152,18.152,0,0,1,1.528,1.38q.732.735,1.386,1.53c.438.53.844,1.08,1.227,1.65s.734,1.16,1.059,1.77.617,1.23.882,1.86.493,1.29.7,1.94.367,1.33.5,2,.234,1.36.3,2.04.1,1.37.1,2.06-.035,1.37-.1,2.06-.168,1.36-.3,2.04-.3,1.34-.5,2-.434,1.3-.7,1.94-.558,1.25-.882,1.86-.676,1.19-1.059,1.77-.789,1.12-1.227,1.65-.9,1.04-1.386,1.53a18.068,18.068,0,0,1-1.528,1.38,19.8,19.8,0,0,1-1.652,1.23,20.212,20.212,0,0,1-1.77,1.06c-.605.32-1.226.62-1.863.88s-1.281.5-1.937.7-1.328.36-2,.5-1.356.23-2.039.3a20.2,20.2,0,0,1-2.059.1,20.21,20.21,0,0,1-2.059-.1q-1.024-.1-2.039-.3c-.672-.14-1.339-.3-2-.5s-1.3-.44-1.937-.7-1.258-.56-1.863-.88a20.212,20.212,0,0,1-1.77-1.06,19.8,19.8,0,0,1-1.652-1.23,18.068,18.068,0,0,1-1.528-1.38q-.732-.735-1.386-1.53c-.438-.53-.844-1.08-1.227-1.65s-.734-1.16-1.059-1.77-.617-1.23-.882-1.86-.493-1.29-.7-1.94-.363-1.33-.5-2-.234-1.36-.3-2.04-.1-1.37-.1-2.06.035-1.37.1-2.06.168-1.36.3-2.04.3-1.34.5-2,.434-1.3.7-1.94.558-1.25.882-1.86.676-1.19,1.059-1.77.789-1.12,1.227-1.65.9-1.04,1.386-1.53a18.152,18.152,0,0,1,1.528-1.38,19.855,19.855,0,0,1,1.652-1.23,20.275,20.275,0,0,1,1.77-1.06c.6-.32,1.226-.62,1.863-.88s1.281-.5,1.937-.7,1.328-.36,2-.5,1.356-.23,2.039-.3A20.281,20.281,0,0,1,300-2789Zm0,0" transform="translate(0 5465)" fill="none" stroke="#8f9cb2" stroke-width="2"/><path d="M303.77,2704.73a1.2,1.2,0,0,0,0-1.71l-5.954-5.98,5.954-5.97a1.209,1.209,0,0,0-1.711-1.71l-6.7,6.68a1.573,1.573,0,0,0,0,2.01l6.7,6.68a1.2,1.2,0,0,0,1.711,0" fill="#8f9cb2" fill-rule="evenodd"/></g></svg>