<svg xmlns="http://www.w3.org/2000/svg" width="44" height="44" viewBox="0 0 44 44"><g transform="translate(-1598 -2675)"><path d="M1620-2789a20.34,20.34,0,0,1,2.06.1q1.02.105,2.04.3c.67.14,1.34.3,2,.5s1.3.44,1.94.7,1.25.56,1.86.88,1.19.68,1.77,1.06a19.65,19.65,0,0,1,1.65,1.23,19.9,19.9,0,0,1,1.53,1.38,19.8,19.8,0,0,1,1.38,1.53,19.6,19.6,0,0,1,1.23,1.65c.38.58.74,1.16,1.06,1.77s.62,1.23.88,1.86.5,1.29.7,1.94.36,1.33.5,2,.23,1.36.3,2.04a20.309,20.309,0,0,1,.1,2.06,20.3,20.3,0,0,1-.1,2.06q-.1,1.02-.3,2.04c-.14.67-.3,1.34-.5,2s-.44,1.3-.7,1.94-.56,1.25-.88,1.86-.68,1.19-1.06,1.77a19.558,19.558,0,0,1-1.23,1.65,19.8,19.8,0,0,1-1.38,1.53,19.8,19.8,0,0,1-1.53,1.38,19.6,19.6,0,0,1-1.65,1.23c-.58.38-1.16.74-1.77,1.06s-1.23.62-1.86.88-1.29.5-1.94.7-1.33.36-2,.5-1.36.23-2.04.3a20.27,20.27,0,0,1-2.06.1,20.27,20.27,0,0,1-2.06-.1q-1.02-.1-2.04-.3c-.67-.14-1.34-.3-2-.5s-1.3-.44-1.94-.7-1.25-.56-1.86-.88-1.19-.68-1.77-1.06a19.6,19.6,0,0,1-1.65-1.23,19.78,19.78,0,0,1-1.53-1.38,19.854,19.854,0,0,1-1.38-1.53,19.558,19.558,0,0,1-1.23-1.65c-.38-.58-.74-1.16-1.06-1.77s-.62-1.23-.88-1.86-.5-1.29-.7-1.94-.36-1.33-.5-2-.23-1.36-.3-2.04a20.3,20.3,0,0,1-.1-2.06,20.309,20.309,0,0,1,.1-2.06q.105-1.02.3-2.04c.14-.67.3-1.34.5-2s.44-1.3.7-1.94.56-1.25.88-1.86.68-1.19,1.06-1.77a19.6,19.6,0,0,1,1.23-1.65,19.854,19.854,0,0,1,1.38-1.53,19.881,19.881,0,0,1,1.53-1.38,19.648,19.648,0,0,1,1.65-1.23c.58-.38,1.16-.74,1.77-1.06s1.23-.62,1.86-.88,1.29-.5,1.94-.7,1.33-.36,2-.5,1.36-.23,2.04-.3A20.34,20.34,0,0,1,1620-2789Zm0,0" transform="translate(0 5465)" fill="none" stroke="#8f9cb2" stroke-width="2"/><path d="M1616.36,2689.36a1.2,1.2,0,0,0,0,1.71l5.95,5.97-5.95,5.98a1.209,1.209,0,0,0,1.71,1.71l6.7-6.68a1.583,1.583,0,0,0,0-2.01l-6.7-6.68a1.2,1.2,0,0,0-1.71,0" fill="#8f9cb2" fill-rule="evenodd"/></g></svg>