<svg xmlns="http://www.w3.org/2000/svg" width="45.996" height="47.67" viewBox="0 0 45.996 47.67"><path d="M463.8,1376.48l13.1,7.19,8.144,4.39.879.48v5.43h-5.109v21H486v8.7H440v-8.7h5.109v-21H440v-5.43l.957-.48,8.066-4.39,13.176-7.19.8-.48Zm-15.25,38.49h1.836v-21h-1.836Zm5.269,0h18.368v-21H453.816Zm-8.707-24.36h37.454v-.08l-7.266-3.91-12.3-6.79-12.3,6.79h-.078l-7.187,3.91v.08Zm32.344,24.36v-21h-1.918v21Zm5.11,3.35H443.355v1.92h39.208v-1.92" transform="translate(-440 -1376)" fill="#1a9fe5"/></svg>