<svg xmlns="http://www.w3.org/2000/svg" width="60.641" height="60.64" viewBox="0 0 60.641 60.64"><path d="M941.5-3802.93a28.6,28.6,0,0,1,28.57-28.57,28.6,28.6,0,0,1,28.571,28.57,28.6,28.6,0,0,1-28.571,28.57A28.6,28.6,0,0,1,941.5-3802.93Zm48.66,4.03-9.984,3.31a4.772,4.772,0,0,0-3.246,3.73l-1.625,8.84a1.557,1.557,0,0,0,2.043,1.8,22.816,22.816,0,0,0,14.855-15.81,1.568,1.568,0,0,0-1.508-1.96A1.691,1.691,0,0,0,990.16-3798.9Zm-42.222,1.87a22.929,22.929,0,0,0,14.855,15.81,1.58,1.58,0,0,0,2.047-1.8l-1.625-8.84a4.785,4.785,0,0,0-3.25-3.73l-9.985-3.31a1.546,1.546,0,0,0-.515-.09A1.593,1.593,0,0,0,947.938-3797.03Zm41.742-12.46a1.54,1.54,0,0,0,1.621-2.1,22.822,22.822,0,0,0-8.766-10.56,23.012,23.012,0,0,0-12.465-3.7,22.982,22.982,0,0,0-21.23,14.26,1.592,1.592,0,0,0,1.621,2.1q9.79-.765,19.609-.76T989.68-3809.49Zm0,0" transform="translate(-939.75 3833.25)" fill="none" stroke="#1a9fe5" stroke-width="3.5"/></svg>