<svg xmlns="http://www.w3.org/2000/svg" width="59.793" height="42.671" viewBox="0 0 59.793 42.671"><path d="M998.227,1383.47h-3.266v-2.35a1.612,1.612,0,0,0-.914-1.44c-7.442-3.13-16.578-1.83-24.152,3.4-7.571-5.23-16.707-6.53-24.153-3.4a1.619,1.619,0,0,0-.914,1.44v2.35h-3.262a1.5,1.5,0,0,0-1.566,1.56v34.08a1.5,1.5,0,0,0,1.566,1.56h56.661a1.5,1.5,0,0,0,1.566-1.56v-34.08A1.5,1.5,0,0,0,998.227,1383.47Zm-6.266-1.31v30.68c-6.531-1.96-13.973-.78-20.5,3.14v-30.16C977.859,1381.25,985.563,1379.81,991.961,1382.16Zm-23.633,3.66v30.29a26.468,26.468,0,0,0-13.969-4.05,22.009,22.009,0,0,0-6.527.91v-30.81C954.23,1379.81,961.934,1381.25,968.328,1385.82Zm-25.2.65h1.7v28.59a1.613,1.613,0,0,0,.656,1.31,1.431,1.431,0,0,0,1.434.13,21.651,21.651,0,0,1,17.5.91H943.133Zm53.527,31.07H975.379a21.641,21.641,0,0,1,17.492-.91,1.409,1.409,0,0,0,1.438-.13,1.621,1.621,0,0,0,.652-1.31v-28.72h1.7v31.07" transform="translate(-940 -1377.999)" fill="#1a9fe5"/></svg>