<svg xmlns="http://www.w3.org/2000/svg" width="36.341" height="48.099" viewBox="0 0 36.341 48.099"><g transform="translate(-16 -5)"><g transform="translate(16 5)"><path d="M28.342,5a5.394,5.394,0,0,0-4.86,3.207H17.436A1.661,1.661,0,0,0,16,9.81V51.5a1.666,1.666,0,0,0,1.6,1.6H31.5a1.6,1.6,0,1,0,0-3.207H19.207V11.413h3.741v1.069a1.666,1.666,0,0,0,1.6,1.6H43.79a1.666,1.666,0,0,0,1.6-1.6V11.413h3.741V49.892H36.843a1.6,1.6,0,1,0,0,3.207h13.9a1.666,1.666,0,0,0,1.6-1.6V9.81a1.666,1.666,0,0,0-1.6-1.6H44.859A5.394,5.394,0,0,0,40,5Zm0,3.207H40a2.236,2.236,0,0,1,2.188,2.372v.3H26.154C26.154,9.182,27.139,8.207,28.342,8.207Z" transform="translate(-16 -5)" fill="#1a9fe5"/><rect width="23" height="4" rx="2" transform="translate(6.462 15.167)" fill="#1a9fe5"/><rect width="23" height="4" rx="2" transform="translate(6.462 25.167)" fill="#1a9fe5"/><rect width="23" height="4" rx="2" transform="translate(6.462 35.167)" fill="#1a9fe5"/></g></g></svg>