<svg xmlns="http://www.w3.org/2000/svg" width="61.14" height="61.14" viewBox="0 0 61.14 61.14"><path d="M1462.57-4095l-1.96,6.94a22.16,22.16,0,0,0-5.12,2.11l-6.31-3.51-5.64,5.64,3.51,6.31a22.285,22.285,0,0,0-2.11,5.11l-6.94,1.97v8l6.94,1.97a22.272,22.272,0,0,0,2.11,5.11l-3.51,6.31,5.64,5.64,6.31-3.51a22.16,22.16,0,0,0,5.12,2.11l1.96,6.94h8l1.97-6.94a22.27,22.27,0,0,0,5.11-2.11l6.31,3.51,5.64-5.64-3.51-6.31a21.846,21.846,0,0,0,2.11-5.11l6.94-1.97v-8l-6.94-1.97a21.859,21.859,0,0,0-2.11-5.11l3.51-6.31-5.64-5.64-6.31,3.51a22.271,22.271,0,0,0-5.11-2.11l-1.97-6.94Zm4,15.58a13.18,13.18,0,0,1,10.2,4.94,12.688,12.688,0,0,1,2.79,8.05,13,13,0,0,1-12.99,12.99,13,13,0,0,1-12.99-12.99A13,13,0,0,1,1466.57-4079.42Zm0,0" transform="translate(-1436 4097)" fill="none" stroke="#1a9fe5" stroke-width="4"/></svg>