<svg xmlns="http://www.w3.org/2000/svg" width="23.975" height="23.975" viewBox="0 0 23.975 23.975"><path d="M16.833,23.975H7.142A7.15,7.15,0,0,1,0,16.833V7.142A7.15,7.15,0,0,1,7.142,0h9.69a7.15,7.15,0,0,1,7.142,7.142v9.69A7.15,7.15,0,0,1,16.833,23.975ZM7.142,2.412a4.736,4.736,0,0,0-4.73,4.73v9.69a4.736,4.736,0,0,0,4.73,4.73h9.69a4.736,4.736,0,0,0,4.73-4.73V7.142a4.736,4.736,0,0,0-4.73-4.73Zm4.846,15.776a6.2,6.2,0,1,1,6.2-6.2A6.208,6.208,0,0,1,11.988,18.188Zm0-9.989a3.789,3.789,0,1,0,3.788,3.789A3.793,3.793,0,0,0,11.988,8.2Zm6.213-.88a1.486,1.486,0,1,1,1.485-1.486A1.488,1.488,0,0,1,18.2,7.319Z" transform="translate(0 0)" fill="#005faa"/></svg>