<svg xmlns="http://www.w3.org/2000/svg" width="154.503" height="357.337" viewBox="0 0 154.503 357.337"><path d="M2615.5,3952.064V3596.114a323.548,323.548,0,0,1,58.208,21.075c18.312,8.845,33.947,19.039,46.471,30.3,13.34,11.993,23.126,25.19,29.087,39.223a87.776,87.776,0,0,1,6.26,22.866,92.614,92.614,0,0,1-.2,24.986c-3.9,27.622,1.926,52.318,7.061,74.106,2.614,11.091,5.083,21.567,6.123,31.571,1.163,11.2.378,20.3-2.473,28.653-3.311,9.7-9.469,18.329-18.825,26.38a119.907,119.907,0,0,1-17.968,12.539,218.874,218.874,0,0,1-24.965,12.212,857.017,857.017,0,0,1-81.2,29.635l-.006,0q-4.005,1.266-7.563,2.4Z" transform="translate(-2615 -3595.466)" fill="none" stroke="rgba(112,112,112,0.5)" stroke-width="1"/></svg>