<svg xmlns="http://www.w3.org/2000/svg" width="219.244" height="371.658" viewBox="0 0 219.244 371.658"><path d="M2603.6,3915.4h-.007a29.727,29.727,0,0,1-11.478-2.388,416.454,416.454,0,0,1-47.842-23.6,332.572,332.572,0,0,1-42.146-28.662,227.854,227.854,0,0,1-33.5-32.77,142.07,142.07,0,0,1-21.917-35.921c-9.882-24.262-9.881-48.356,0-71.612,10.911-25.672,11.68-51.031,12.359-73.406.345-11.392.672-22.151,2.257-32.082,1.774-11.117,4.89-19.708,9.8-27.037,5.709-8.513,13.89-15.254,25.011-20.609a119.909,119.909,0,0,1,20.6-7.461,218.8,218.8,0,0,1,27.275-5.335,857.1,857.1,0,0,1,86.1-7.607c11.6-.515,19.979-.886,27.377-2.083v318.579c-8.428,16.438-17.089,29.172-25.742,37.849a55.945,55.945,0,0,1-13.818,10.462A31.4,31.4,0,0,1,2603.6,3915.4Z" transform="translate(-2438.756 -3544.239)" fill="none" stroke="rgba(112,112,112,0.5)" stroke-width="1"/></svg>