<?xml version="1.0" encoding="UTF-8"?>
<!DOCTYPE svg PUBLIC "-//W3C//DTD SVG 1.1//EN" "http://www.w3.org/Graphics/SVG/1.1/DTD/svg11.dtd">
<!-- Creator: CorelDRAW 2020 (64-Bit) -->
<svg xmlns="http://www.w3.org/2000/svg" xml:space="preserve" width="5.8888mm" height="5.6293mm" version="1.1" style="shape-rendering:geometricPrecision; text-rendering:geometricPrecision; image-rendering:optimizeQuality; fill-rule:evenodd; clip-rule:evenodd"
viewBox="0 0 4.84 4.63"
 xmlns:xlink="http://www.w3.org/1999/xlink"
 xmlns:xodm="http://www.corel.com/coreldraw/odm/2003">
 <defs>
  <style type="text/css">
   <![CDATA[
    .fil0 {fill:#005FAA;fill-rule:nonzero}
   ]]>
  </style>
 </defs>
 <g id="Layer_x0020_1">
  <metadata id="CorelCorpID_0Corel-Layer"/>
  <g id="_1980475900144">
   <g>
    <path class="fil0" d="M1.17 0.54c0,0.3 -0.23,0.54 -0.59,0.54l-0.01 0c-0.35,0 -0.57,-0.24 -0.57,-0.54 0,-0.31 0.23,-0.54 0.59,-0.54 0.36,-0 0.57,0.23 0.58,0.54zm-1.11 4.09l1.04 0 0 -3.12 -1.04 0 0 3.12zm3.59 -3.2c-0.55,0 -0.8,0.3 -0.94,0.52l0 0.01 -0.01 -0c0,-0 0.01,-0.01 0.01,-0.01l0 -0.44 -1.04 0c0.01,0.29 0,3.12 0,3.12l1.04 -0 0 -1.74c0,-0.09 0.01,-0.19 0.03,-0.25 0.08,-0.19 0.25,-0.38 0.53,-0.38 0.38,0 0.53,0.29 0.53,0.71l0 1.67 1.04 0 0 -1.79c0,-0.96 -0.51,-1.41 -1.2,-1.41z"/>
   </g>
   <g>
   </g>
   <g>
   </g>
   <g>
   </g>
   <g>
   </g>
   <g>
   </g>
   <g>
   </g>
   <g>
   </g>
   <g>
   </g>
   <g>
   </g>
   <g>
   </g>
   <g>
   </g>
   <g>
   </g>
   <g>
   </g>
   <g>
   </g>
   <g>
   </g>
  </g>
 </g>
</svg>
