<svg xmlns="http://www.w3.org/2000/svg" width="201" height="45.038" viewBox="0 0 201 45.038"><g transform="translate(-38.274 -86.169)"><path d="M38.274,129.622V87.445H51.011L58.6,116.216l7.478-28.771H78.865v42.177H71l-.032-33.2-8.284,33.2H54.428l-8.254-33.2-.033,33.2H38.274" transform="translate(0 0.802)" fill="#005faa"/><path d="M72.53,104.3l-7.273-1.324a11.573,11.573,0,0,1,4.262-6.636q3.021-2.154,8.981-2.156,5.414,0,8.061,1.28a8.039,8.039,0,0,1,3.73,3.247q1.077,1.966,1.079,7.226l-.133,9.424a32.441,32.441,0,0,0,.392,5.933,17.166,17.166,0,0,0,1.459,4.095h-8q-.317-.808-.777-2.395-.2-.723-.288-.954a14.635,14.635,0,0,1-4.435,3.007,12.712,12.712,0,0,1-5.033,1,10.465,10.465,0,0,1-7.441-2.542,8.426,8.426,0,0,1-2.719-6.433,8.585,8.585,0,0,1,1.236-4.588A8.073,8.073,0,0,1,69.1,109.4a27.309,27.309,0,0,1,6.425-1.872,44.186,44.186,0,0,0,7.849-1.972v-.811a4.229,4.229,0,0,0-1.154-3.346q-1.153-1-4.354-1a5.732,5.732,0,0,0-3.374.866,6.01,6.01,0,0,0-1.96,3.035m10.842,6.544q-1.556.51-4.922,1.219a15.015,15.015,0,0,0-4.4,1.387,3.311,3.311,0,0,0-1.583,2.807,3.87,3.87,0,0,0,1.267,2.888,4.456,4.456,0,0,0,3.224,1.218,7.077,7.077,0,0,0,4.173-1.416,4.99,4.99,0,0,0,1.929-2.634,15.466,15.466,0,0,0,.316-3.882Z" transform="translate(16.411 5.035)" fill="#005faa"/><path d="M110.836,125.388h-8.064V109.84a24.15,24.15,0,0,0-.516-6.384,4.485,4.485,0,0,0-1.677-2.253,4.792,4.792,0,0,0-2.794-.8,6.44,6.44,0,0,0-3.753,1.148,5.773,5.773,0,0,0-2.279,3.041,26.263,26.263,0,0,0-.615,7v13.8H83.07V94.846h7.537v4.487a12.444,12.444,0,0,1,14.88-4.186,8.185,8.185,0,0,1,3.333,2.459,8.928,8.928,0,0,1,1.574,3.39,25.4,25.4,0,0,1,.443,5.43v18.963" transform="translate(28.139 5.035)" fill="#005faa"/><path d="M109.637,87.445v15.629A11.988,11.988,0,0,1,124,99.454a8.231,8.231,0,0,1,3.372,2.642,9.57,9.57,0,0,1,1.553,3.564,32.048,32.048,0,0,1,.417,6.062v17.9h-8.066v-16.1a23.825,23.825,0,0,0-.459-6.081,3.993,3.993,0,0,0-1.623-2.05,5.221,5.221,0,0,0-2.916-.762,6.711,6.711,0,0,0-3.593.975,5.642,5.642,0,0,0-2.312,2.942,17.533,17.533,0,0,0-.733,5.809v15.262h-8.064V87.445h8.064" transform="translate(39.761 0.802)" fill="#005faa"/><path d="M141.243,125.388h-8.066V94.846h7.535V99.19a12.829,12.829,0,0,1,3.453-4.039,6.389,6.389,0,0,1,3.479-.965,10.153,10.153,0,0,1,5.3,1.532l-2.478,7.063a7.13,7.13,0,0,0-3.8-1.322,4.5,4.5,0,0,0-2.88.933,6.354,6.354,0,0,0-1.861,3.37q-.679,2.44-.676,10.215v9.412" transform="translate(59.613 5.035)" fill="#005faa"/><path d="M164.213,115.67l8.066,1.322a13.19,13.19,0,0,1-4.9,6.744,14.41,14.41,0,0,1-8.383,2.314q-7.969,0-11.791-5.2a17.413,17.413,0,0,1-3.02-10.5q0-7.576,3.974-11.869A13.1,13.1,0,0,1,158.2,94.185q6.821,0,10.767,4.508T172.74,112.5H152.446a8.081,8.081,0,0,0,1.955,5.552,6.14,6.14,0,0,0,4.66,1.985,4.961,4.961,0,0,0,3.2-1.034,6.39,6.39,0,0,0,1.955-3.331m.528-8.131a7.715,7.715,0,0,0-1.822-5.319,5.9,5.9,0,0,0-8.621.1,7.38,7.38,0,0,0-1.708,5.218Z" transform="translate(66.526 5.035)" fill="#005faa"/><path d="M122.921,89.608c0-1.9,1.968-3.439,4.4-3.439s4.394,1.539,4.394,3.439-1.967,3.435-4.394,3.435-4.4-1.539-4.4-3.435" transform="translate(53.171 0)" fill="#005faa"/><path d="M129.7,110.336V128.06h-3.935V97.108l-6.273,8.974-2.774-1.3,6.273-9.095a10.316,10.316,0,0,1,8.349-4.505c5.987.347,8.113,4.505,8.113,4.505l6.275,9.095-2.773,1.3-6.278-8.974V128.06H132.74V110.336H129.7" transform="translate(49.272 3.146)" fill="#005faa"/></g></svg>