<svg xmlns="http://www.w3.org/2000/svg" width="27.121" height="21.281" viewBox="0 0 27.121 21.281"><path d="M10.238-34.719a5.329,5.329,0,0,0,5.2-5.359c0-3.441-2.48-5.043-4.4-5.043a3.28,3.28,0,0,0-2.238.563l-.32-.16a11.55,11.55,0,0,1,7.84-8.16L12.961-56A14.542,14.542,0,0,0,4.238-42.48C4.238-37.922,6.48-34.719,10.238-34.719Zm15.043,0a5.328,5.328,0,0,0,5.2-5.359c0-3.441-2.48-5.043-4.4-5.043a3.28,3.28,0,0,0-2.238.563l-.32-.16a11.55,11.55,0,0,1,7.84-8.16L28-56a14.544,14.544,0,0,0-8.719,13.52c0,4.559,2.238,7.762,6,7.762" transform="translate(-4.238 56)"/></svg>