<svg xmlns="http://www.w3.org/2000/svg" width="65.92" height="21.28" viewBox="0 0 65.92 21.28"><path d="M20.2,39.28a5.328,5.328,0,0,0,5.2-5.36c0-3.44-2.48-5.04-4.4-5.04a3.288,3.288,0,0,0-2.24.56l-.32-.16a11.556,11.556,0,0,1,7.84-8.16L22.92,18A14.543,14.543,0,0,0,14.2,31.52C14.2,36.08,16.44,39.28,20.2,39.28Zm15.04,0a5.328,5.328,0,0,0,5.2-5.36c0-3.44-2.48-5.04-4.4-5.04a3.288,3.288,0,0,0-2.24.56l-.32-.16a11.556,11.556,0,0,1,7.84-8.16L37.96,18a14.543,14.543,0,0,0-8.72,13.52C29.24,36.08,31.48,39.28,35.24,39.28ZM59.08,18a5.328,5.328,0,0,0-5.2,5.36c0,3.44,2.48,5.04,4.4,5.04a3.288,3.288,0,0,0,2.24-.56l.32.16A11.556,11.556,0,0,1,53,36.16l3.36,3.12a14.543,14.543,0,0,0,8.72-13.52C65.08,21.2,62.84,18,59.08,18Zm15.04,0a5.328,5.328,0,0,0-5.2,5.36c0,3.44,2.48,5.04,4.4,5.04a3.288,3.288,0,0,0,2.24-.56l.32.16a11.556,11.556,0,0,1-7.84,8.16l3.36,3.12a14.543,14.543,0,0,0,8.72-13.52C80.12,21.2,77.88,18,74.12,18Z" transform="translate(-14.2 -18)" fill="#414042"/></svg>