<svg xmlns="http://www.w3.org/2000/svg" width="27.121" height="21.281" viewBox="0 0 27.121 21.281"><path d="M10.481-56a5.328,5.328,0,0,0-5.2,5.359c0,3.441,2.48,5.039,4.4,5.039a3.3,3.3,0,0,0,2.242-.559l.316.16A11.557,11.557,0,0,1,4.4-37.84l3.363,3.121a14.548,14.548,0,0,0,8.719-13.52C16.48-52.8,14.238-56,10.481-56ZM25.52-56a5.328,5.328,0,0,0-5.2,5.359c0,3.441,2.481,5.039,4.4,5.039a3.3,3.3,0,0,0,2.242-.559l.32.16a11.565,11.565,0,0,1-7.84,8.16L22.8-34.719a14.548,14.548,0,0,0,8.719-13.52c0-4.562-2.238-7.762-6-7.762" transform="translate(-4.398 56)"/></svg>