<svg xmlns="http://www.w3.org/2000/svg" width="22.565" height="18.334" viewBox="0 0 22.565 18.334"><path d="M22.565,2.17a9.286,9.286,0,0,1-2.659.729A4.643,4.643,0,0,0,21.941.339,9.251,9.251,0,0,1,19,1.462a4.632,4.632,0,0,0-8.009,3.167,4.681,4.681,0,0,0,.121,1.056A13.141,13.141,0,0,1,1.572.847,4.633,4.633,0,0,0,3,7.026a4.591,4.591,0,0,1-2.1-.579v.059a4.63,4.63,0,0,0,3.713,4.538,4.622,4.622,0,0,1-1.22.162,4.554,4.554,0,0,1-.871-.084,4.636,4.636,0,0,0,4.325,3.215A9.3,9.3,0,0,1,1.1,16.318,9.331,9.331,0,0,1,0,16.254a13.1,13.1,0,0,0,7.1,2.08A13.08,13.08,0,0,0,20.268,5.165c0-.2-.005-.4-.013-.6a9.409,9.409,0,0,0,2.31-2.4Z" fill="#005faa"/></svg>