<svg xmlns="http://www.w3.org/2000/svg" width="33.6" height="28" viewBox="0 0 33.6 28">
  <path id="Path_871" data-name="Path 871" d="M9.8,30A9.8,9.8,0,0,1,7.283,10.736,11.2,11.2,0,0,1,29.4,13.2c0,.346-.018.694-.05,1.046a8.395,8.395,0,0,1-4.15,15.7,1.4,1.4,0,1,1,0-2.8,5.594,5.594,0,0,0,2.093-10.784,1.4,1.4,0,0,1-.848-1.564A8.563,8.563,0,0,0,26.6,13.2,8.395,8.395,0,0,0,9.883,12.094a1.4,1.4,0,0,1-1.172,1.2A7,7,0,0,0,9.8,27.2a1.4,1.4,0,0,1,0,2.8Zm7,0a1.4,1.4,0,0,1-1.4-1.4V17.98l-3.21,3.21a1.4,1.4,0,0,1-1.98-1.98l5.6-5.6a1.4,1.4,0,0,1,2.39.99v14A1.4,1.4,0,0,1,16.8,30Zm5.6-8.4a1.4,1.4,0,0,1-.99-.41l-5.6-5.6a1.4,1.4,0,1,1,1.98-1.98l5.6,5.6a1.4,1.4,0,0,1-.99,2.39Z" transform="translate(0 -2)" fill="#d5d7db"/>
</svg>
